<svg width="53" height="64" viewBox="0 0 53 64" fill="none" xmlns="http://www.w3.org/2000/svg">
<path fill-rule="evenodd" clip-rule="evenodd" d="M0.338135 31.2432L31.7346 0L44.0342 9.99223C44.0342 9.99223 39.7704 10.0784 36.0681 11.412C32.3663 12.7451 30.5186 14.7051 28.5672 16.7906C24.2972 21.3552 23.0793 25.7416 23.1108 31.3309C23.1414 36.9203 24.8201 39.9306 28.068 44.024C29.1675 45.4104 30.2501 46.7436 32.0935 47.7507C32.7218 48.0944 35.374 50.029 37.1205 50.5703C38.867 51.1116 43.5523 51.3169 43.5523 51.3169L32.0935 63.2158L0.338135 31.2432Z" fill="#AA72FD"/>
<path d="M44.223 38.9606C48.8777 38.9606 52.651 35.1872 52.651 30.5326C52.651 25.8779 48.8777 22.1045 44.223 22.1045C39.5683 22.1045 35.7949 25.8779 35.7949 30.5326C35.7949 35.1872 39.5683 38.9606 44.223 38.9606Z" fill="#AA72FD"/>
</svg>
