<svg width="63" height="64" viewBox="0 0 63 64" fill="none" xmlns="http://www.w3.org/2000/svg">
<path d="M19.2477 14.3774C18.9992 13.8692 18.5869 13.4346 18.0607 13.1263C17.5345 12.818 16.917 12.6493 16.283 12.6404H5.78848C5.51283 12.6268 5.2375 12.6716 4.98615 12.7712C4.7348 12.8707 4.51495 13.0219 4.34548 13.2118C4.20524 13.4279 4.13153 13.672 4.13153 13.9203C4.13153 14.1686 4.20524 14.4126 4.34548 14.6288L11.508 25.4391L0.226388 42.7859C0.0782777 42.9997 0 43.2447 0 43.4944C0 43.7442 0.0782777 43.9891 0.226388 44.2029C0.367154 44.4063 0.568032 44.5729 0.808026 44.6855C1.04802 44.7981 1.31832 44.8524 1.59067 44.8429H12.0852C12.7141 44.8258 13.3233 44.6475 13.8366 44.3305C14.3499 44.0134 14.7445 43.5716 14.9712 43.0602L26.4102 25.4391L19.2477 14.3774ZM62.3014 2.0129C62.4369 1.7954 62.5079 1.55186 62.5079 1.3044C62.5079 1.05694 62.4369 0.813403 62.3014 0.595901C62.1463 0.402433 61.9374 0.246427 61.6942 0.142497C61.451 0.0385665 61.1815 -0.00988737 60.9109 0.00167464H50.2065C49.587 0.016916 48.9868 0.192406 48.4822 0.5058C47.9776 0.819194 47.5915 1.25631 47.373 1.7615C47.373 1.7615 24.5474 37.0265 23.7603 38.1693L38.82 62.2354C39.0654 62.7428 39.4726 63.1782 39.9934 63.4901C40.5142 63.802 41.1268 63.9773 41.7584 63.9952H52.2529C52.5285 64.0155 52.8052 63.971 53.0544 63.8665C53.3035 63.762 53.516 63.6013 53.6697 63.401C53.8125 63.1856 53.8876 62.9412 53.8876 62.6925C53.8876 62.4438 53.8125 62.1994 53.6697 61.984L38.7412 38.215L62.3014 2.0129Z" fill="#AA72FD"/>
</svg>
