<svg width="86" height="40" viewBox="0 0 86 40" fill="none" xmlns="http://www.w3.org/2000/svg">
<path fill-rule="evenodd" clip-rule="evenodd" d="M47.0918 1.31882e-05C46.151 1.31882e-05 45.3881 0.768433 45.3881 1.69685V5.66422C45.388 5.83172 45.4209 5.99759 45.4848 6.1523C45.5488 6.30701 45.6426 6.44751 45.7609 6.56573C45.8792 6.68394 46.0196 6.77754 46.1741 6.84114C46.3286 6.90474 46.4941 6.93709 46.661 6.93633H84.0652C84.2321 6.93674 84.3974 6.90416 84.5517 6.84043C84.7061 6.77671 84.8463 6.68309 84.9646 6.56495C85.0828 6.4468 85.1766 6.30644 85.2407 6.15188C85.3048 5.99733 85.3379 5.83162 85.3381 5.66422V1.27212C85.3383 1.10462 85.3054 0.938753 85.2414 0.784042C85.1774 0.62933 85.0836 0.488829 84.9653 0.370613C84.847 0.252397 84.7066 0.1588 84.5521 0.0951999C84.3977 0.0315993 84.2322 -0.000749783 84.0652 1.31882e-05H47.0918ZM46.661 10.2126C46.4942 10.2122 46.3288 10.2448 46.1745 10.3085C46.0202 10.3723 45.8799 10.4659 45.7617 10.584C45.6435 10.7022 45.5496 10.8425 45.4855 10.9971C45.4214 11.1516 45.3883 11.3173 45.3881 11.4847V15.8768C45.388 16.0443 45.4209 16.2102 45.4848 16.3649C45.5488 16.5196 45.6426 16.6601 45.7609 16.7784C45.8792 16.8966 46.0196 16.9902 46.1741 17.0538C46.3286 17.1174 46.4941 17.1497 46.661 17.149H84.0652C84.2321 17.1494 84.3974 17.1168 84.5517 17.0531C84.7061 16.9893 84.8463 16.8957 84.9646 16.7776C85.0828 16.6594 85.1766 16.5191 85.2407 16.3645C85.3048 16.21 85.3379 16.0442 85.3381 15.8768V11.4847C85.3383 11.3173 85.3054 11.1514 85.2414 10.9967C85.1774 10.842 85.0836 10.7015 84.9653 10.5832C84.847 10.465 84.7066 10.3714 84.5521 10.3078C84.3977 10.2442 84.2322 10.2119 84.0652 10.2126H46.661ZM46.661 21.2768C46.4942 21.2764 46.3288 21.309 46.1745 21.3727C46.0202 21.4365 45.8799 21.5301 45.7617 21.6482C45.6435 21.7664 45.5496 21.9067 45.4855 22.0613C45.4214 22.2158 45.3883 22.3816 45.3881 22.549V26.9405C45.388 27.108 45.4209 27.2739 45.4848 27.4286C45.5488 27.5833 45.6426 27.7238 45.7609 27.842C45.8792 27.9602 46.0196 28.0538 46.1741 28.1174C46.3286 28.181 46.4941 28.2134 46.661 28.2126H84.0652C84.2321 28.2131 84.3974 28.1805 84.5517 28.1167C84.7061 28.053 84.8463 27.9594 84.9646 27.8413C85.0828 27.7231 85.1766 27.5827 85.2407 27.4282C85.3048 27.2736 85.3379 27.1079 85.3381 26.9405V22.549C85.3383 22.3815 85.3054 22.2156 85.2414 22.0609C85.1774 21.9062 85.0836 21.7657 84.9653 21.6474C84.847 21.5292 84.7066 21.4356 84.5521 21.372C84.3977 21.3084 84.2322 21.2761 84.0652 21.2768H46.661ZM46.661 32.3405C46.4942 32.3401 46.3288 32.3727 46.1745 32.4364C46.0202 32.5001 45.8799 32.5938 45.7617 32.7119C45.6435 32.8301 45.5496 32.9704 45.4855 33.125C45.4214 33.2795 45.3883 33.4452 45.3881 33.6126V38.0042C45.3879 38.1717 45.4207 38.3377 45.4847 38.4924C45.5486 38.6472 45.6425 38.7878 45.7607 38.9061C45.879 39.0243 46.0195 39.118 46.174 39.1816C46.3285 39.2452 46.494 39.2776 46.661 39.2768H84.0652C84.2321 39.2773 84.3975 39.2447 84.5519 39.1809C84.7062 39.1171 84.8465 39.0235 84.9647 38.9053C85.083 38.7871 85.1768 38.6466 85.2409 38.492C85.3049 38.3374 85.338 38.1716 85.3381 38.0042V33.6126C85.3383 33.4451 85.3054 33.2793 85.2414 33.1246C85.1774 32.9698 85.0836 32.8293 84.9653 32.7111C84.847 32.5929 84.7066 32.4993 84.5521 32.4357C84.3977 32.3721 84.2322 32.3398 84.0652 32.3405H46.661ZM35.1881 38.7258C35.1881 38.8932 35.2209 39.0589 35.2847 39.2136C35.3486 39.3683 35.4422 39.5088 35.5602 39.6271C35.6782 39.7455 35.8184 39.8393 35.9726 39.9033C36.1268 39.9673 36.2921 40.0001 36.4589 40H40.8454C41.0123 40.0004 41.1777 39.9677 41.332 39.9039C41.4863 39.84 41.6265 39.7461 41.7445 39.6277C41.8625 39.5093 41.9561 39.3687 42.0198 39.2139C42.0835 39.0591 42.116 38.8932 42.1156 38.7258V1.2737C42.1156 1.10634 42.0828 0.940636 42.0189 0.786037C41.955 0.631438 41.8614 0.490979 41.7434 0.372693C41.6253 0.254407 41.4852 0.160612 41.3311 0.0966655C41.1769 0.0327189 41.0117 -0.000125119 40.8448 1.31882e-05H36.4584C36.2915 -0.000403352 36.1261 0.0322721 35.9718 0.0961596C35.8175 0.160047 35.6773 0.253887 35.5593 0.372291C35.4412 0.490696 35.3477 0.631331 35.284 0.786114C35.2203 0.940896 35.1877 1.10677 35.1881 1.27422V38.7258ZM12.2381 38.7258C12.2381 38.8932 12.2709 39.0589 12.3347 39.2136C12.3986 39.3683 12.4922 39.5088 12.6102 39.6271C12.7282 39.7455 12.8684 39.8393 13.0226 39.9033C13.1768 39.9673 13.3421 40.0001 13.5089 40H17.8954C18.0623 40.0004 18.2277 39.9677 18.382 39.9039C18.5363 39.84 18.6765 39.7461 18.7945 39.6277C18.9125 39.5093 19.0061 39.3687 19.0698 39.2139C19.1335 39.0591 19.1661 38.8932 19.1656 38.7258V1.2737C19.1656 1.10634 19.1328 0.940636 19.0689 0.786037C19.005 0.631438 18.9114 0.490979 18.7934 0.372693C18.6753 0.254407 18.5352 0.160612 18.3811 0.0966655C18.2269 0.0327189 18.0617 -0.000125119 17.8948 1.31882e-05H13.5084C13.3415 -0.000403352 13.1761 0.0322721 13.0218 0.0961596C12.8675 0.160047 12.7273 0.253887 12.6093 0.372291C12.4912 0.490696 12.3977 0.631331 12.334 0.786114C12.2703 0.940896 12.2377 1.10677 12.2381 1.27422V38.7258ZM7.26564 38.7258C7.26571 38.8932 7.23288 39.0589 7.16903 39.2136C7.10519 39.3683 7.01158 39.5088 6.89355 39.6271C6.77553 39.7455 6.6354 39.8393 6.48119 39.9033C6.32698 39.9673 6.16171 40.0001 5.99483 40H1.60842C1.44149 40.0004 1.27612 39.9677 1.12181 39.9039C0.967506 39.84 0.827307 39.7461 0.709268 39.6277C0.591229 39.5093 0.497677 39.3687 0.433986 39.2139C0.370296 39.0591 0.337723 38.8932 0.338139 38.7258V1.2737C0.338139 1.10634 0.371016 0.940636 0.434893 0.786037C0.49877 0.631438 0.592392 0.490979 0.710411 0.372693C0.828429 0.254407 0.968531 0.160612 1.12271 0.0966655C1.27688 0.0327189 1.44211 -0.000125119 1.60894 1.31882e-05H5.99536C6.16229 -0.000403352 6.32766 0.0322721 6.48197 0.0961596C6.63627 0.160047 6.77647 0.253887 6.89451 0.372291C7.01255 0.490696 7.1061 0.631331 7.16979 0.786114C7.23348 0.940896 7.26605 1.10677 7.26564 1.27422V38.7258ZM23.2881 38.7258C23.2881 38.8932 23.3209 39.0589 23.3847 39.2136C23.4486 39.3683 23.5422 39.5088 23.6602 39.6271C23.7782 39.7455 23.9184 39.8393 24.0726 39.9033C24.2268 39.9673 24.3921 40.0001 24.5589 40H28.9454C29.1123 40.0004 29.2777 39.9677 29.432 39.9039C29.5863 39.84 29.7265 39.7461 29.8445 39.6277C29.9625 39.5093 30.0561 39.3687 30.1198 39.2139C30.1835 39.0591 30.2161 38.8932 30.2156 38.7258V1.2737C30.2156 1.10634 30.1828 0.940636 30.1189 0.786037C30.055 0.631438 29.9614 0.490979 29.8434 0.372693C29.7253 0.254407 29.5852 0.160612 29.4311 0.0966655C29.2769 0.0327189 29.1117 -0.000125119 28.9448 1.31882e-05H24.5584C24.3915 -0.000403352 24.2261 0.0322721 24.0718 0.0961596C23.9175 0.160047 23.7773 0.253887 23.6593 0.372291C23.5412 0.490696 23.4477 0.631331 23.384 0.786114C23.3203 0.940896 23.2877 1.10677 23.2881 1.27422V38.7258Z" fill="#AA72FD"/>
</svg>
