<svg width="58" height="57" viewBox="0 0 58 57" fill="none" xmlns="http://www.w3.org/2000/svg">
<path fill-rule="evenodd" clip-rule="evenodd" d="M28.8381 57C13.0981 57 0.338135 44.2401 0.338135 28.5C0.338135 12.7599 13.0981 0 28.8381 0C44.5782 0 57.3381 12.7599 57.3381 28.5C57.3381 44.2401 44.5782 57 28.8381 57ZM28.6832 13.869C37.0765 13.869 39.9624 19.4894 42.3131 23.5302C45.6581 29.2797 46.0091 33.1811 53.4308 36.1903C54.2403 32.2855 54.2403 32.7037 54.2403 28.3451C54.2403 14.2305 42.7979 2.78804 28.6832 2.78804C14.5686 2.78804 3.12618 14.2305 3.12618 28.3451C3.12618 31.9417 2.6296 32.556 3.91581 36.1903C10.4073 34.0569 13.4441 27.1472 14.656 24.0642C16.3678 19.7099 20.29 13.8693 28.6832 13.8693V13.869ZM28.8381 21.4943C23.5322 21.4943 19.1813 31.4141 18.0177 33.7864C16.8542 36.1591 12.8803 41.6689 7.39034 43.0496C11.9695 49.932 19.7968 54.4675 28.6832 54.4675C37.4959 54.4675 45.2665 50.0073 49.8612 43.2209C45.2665 39.882 42.8474 38.4765 39.4739 33.7864C36.6877 29.9129 34.1441 21.4943 28.8381 21.4943Z" fill="#AA72FD"/>
</svg>
