<svg width="97" height="33" viewBox="0 0 97 33" fill="none" xmlns="http://www.w3.org/2000/svg">
<path d="M96.4148 17.3535V9.84597C96.4148 3.49283 88.9632 0.0295682 82.8686 0.0295682C78.6271 0.311911 74.5975 1.72606 71.3519 4.07132C69.9539 2.81411 68.2745 1.8085 66.413 1.11387C64.5515 0.419246 62.5456 0.049683 60.5138 0.0270099C56.2305 0.151561 52.1432 1.58728 49.0001 4.07132C47.8549 2.71163 46.3191 1.62561 44.5401 0.917427C42.761 0.209238 40.7984 -0.0973687 38.8405 0.0270099C36.8186 -0.106306 34.7947 0.26335 33.0143 1.09116C31.2339 1.91897 29.7734 3.16937 28.8099 4.69076L19.8752 21.9738L9.94971 2.5867C9.41957 1.55285 8.4315 0.73963 7.20095 0.324381C5.9704 -0.0908679 4.59719 -0.0744662 3.38077 0.370008C2.76443 0.594657 2.20719 0.922394 1.74198 1.33384C1.27678 1.74528 0.913068 2.23208 0.672351 2.76544C0.431634 3.29881 0.318801 3.86791 0.340524 4.4391C0.362248 5.01029 0.518086 5.57196 0.798825 6.09091L13.0991 28.9029C13.0991 28.9029 15.1316 32.9472 19.1937 32.9472C20.441 33.1048 21.7146 32.9074 22.8169 32.3854C23.9193 31.8634 24.789 31.046 25.2913 30.0598C26.228 28.8568 33.3403 16.1095 37.6246 8.37927C37.7907 8.08119 38.0709 7.84018 38.4191 7.69586C38.7672 7.55155 39.1626 7.51252 39.5402 7.58519C39.9178 7.65785 40.2552 7.8379 40.4968 8.09572C40.7385 8.35354 40.8701 8.67379 40.87 9.00384V28.1682C40.8518 29.3607 41.3631 30.5149 42.3014 31.3993C43.2396 32.2838 44.5354 32.833 45.9288 32.9369C46.6692 32.979 47.4117 32.891 48.1106 32.6783C48.8094 32.4657 49.4495 32.133 49.9914 31.7008C50.5332 31.2686 50.9652 30.7461 51.2605 30.1658C51.5558 29.5854 51.7082 28.9595 51.7082 28.3269V12.4441C51.7425 11.1617 52.3641 9.94178 53.44 9.04522C54.5159 8.14865 55.9606 7.64667 57.465 7.64667C58.9694 7.64667 60.4141 8.14865 61.49 9.04522C62.5659 9.94178 63.1875 11.1617 63.2218 12.4441V28.3269C63.2218 29.5523 63.7928 30.7275 64.809 31.5939C65.8253 32.4604 67.2037 32.9472 68.6409 32.9472C70.0781 32.9472 71.4565 32.4604 72.4728 31.5939C73.489 30.7275 74.06 29.5523 74.06 28.3269V12.4441C74.06 11.142 74.6667 9.89324 75.7466 8.97253C76.8265 8.05182 78.2911 7.53458 79.8183 7.53458C81.3455 7.53458 82.8102 8.05182 83.8901 8.97253C84.97 9.89324 85.5767 11.142 85.5767 12.4441V28.3269C85.5767 29.5523 86.1476 30.7275 87.1639 31.5939C88.1801 32.4604 89.5585 32.9472 90.9957 32.9472C92.433 32.9472 93.8113 32.4604 94.8276 31.5939C95.8439 30.7275 96.4148 29.5523 96.4148 28.3269V17.3535Z" fill="#AA72FD"/>
</svg>
