<svg width="42" height="41" viewBox="0 0 42 41" fill="none" xmlns="http://www.w3.org/2000/svg">
<path fill-rule="evenodd" clip-rule="evenodd" d="M1.71339 0.284758C0.928521 0.284758 0.460593 0.900116 0.668918 1.66219L10.7611 38.5872C10.9694 39.3482 11.7728 39.965 12.5609 39.965H15.1576C15.9435 39.965 16.7191 39.3418 16.889 38.5762L25.0845 1.67323C25.2551 0.906169 24.7558 0.284402 23.9699 0.284402H22.1986C21.4127 0.284402 20.6535 0.90973 20.5028 1.68035L15.5073 27.2387C15.3567 28.0101 14.5935 28.635 13.8087 28.635H14.2688C13.481 28.635 12.6805 28.0165 12.4811 27.2579L5.75559 1.66148C5.55617 0.900828 4.75813 0.284402 3.97291 0.284402H1.71303L1.71339 0.284758ZM20.5146 39.9547C19.7269 39.9547 19.2354 39.3376 19.4192 38.5669L28.2471 1.52936C28.4298 0.763013 29.2154 0.141602 30.0031 0.141602H31.9902C32.7776 0.141602 33.2694 0.75874 33.087 1.52936L24.3032 38.5669C24.1216 39.3336 23.3353 39.9547 22.5476 39.9547H20.5146ZM30.7898 40.4568C31.5768 40.4568 32.3677 39.8347 32.5539 39.0758L41.7259 1.71347C41.9132 0.950328 41.4289 0.33212 40.638 0.33212H38.2189C37.4309 0.33212 36.6392 0.954245 36.453 1.71347L27.2874 39.0755C27.1005 39.8382 27.5841 40.4565 28.3736 40.4565H30.7898V40.4568Z" fill="#AA72FD"/>
</svg>
